<svg width="24" height="24" viewBox="0 0 24 24" fill="none" xmlns="http://www.w3.org/2000/svg">
<path fill-rule="evenodd" clip-rule="evenodd" d="M8.76786 3C8.64826 3 8.52983 3.02356 8.41934 3.06932C8.30885 3.11509 8.20845 3.18217 8.12388 3.26674C8.03932 3.35131 7.97223 3.45171 7.92647 3.5622C7.8807 3.67269 7.85714 3.79112 7.85714 3.91071C7.85714 4.03031 7.8807 4.14874 7.92647 4.25923C7.97223 4.36972 8.03932 4.47012 8.12388 4.55469C8.20845 4.63925 8.30885 4.70634 8.41934 4.7521C8.52983 4.79787 8.64826 4.82143 8.76786 4.82143H14.2321C14.3517 4.82143 14.4702 4.79787 14.5807 4.7521C14.6912 4.70634 14.7915 4.63925 14.8761 4.55469C14.9607 4.47012 15.0278 4.36972 15.0735 4.25923C15.1193 4.14874 15.1429 4.03031 15.1429 3.91071C15.1429 3.79112 15.1193 3.67269 15.0735 3.5622C15.0278 3.45171 14.9607 3.35131 14.8761 3.26674C14.7915 3.18217 14.6912 3.11509 14.5807 3.06932C14.4702 3.02356 14.3517 3 14.2321 3H8.76786ZM6.33929 6.03571C6.09775 6.03571 5.86611 6.13166 5.69531 6.30246C5.52452 6.47325 5.42857 6.70489 5.42857 6.94643C5.42857 7.18796 5.52452 7.41961 5.69531 7.5904C5.86611 7.76119 6.09775 7.85714 6.33929 7.85714H16.6607C16.9023 7.85714 17.1339 7.76119 17.3047 7.5904C17.4755 7.41961 17.5714 7.18796 17.5714 6.94643C17.5714 6.70489 17.4755 6.47325 17.3047 6.30246C17.1339 6.13166 16.9023 6.03571 16.6607 6.03571H6.33929ZM4.82143 10.8929V18.1786H18.1786V10.8929H4.82143ZM4.21429 9.07143C3.89224 9.07143 3.58338 9.19936 3.35566 9.42708C3.12793 9.65481 3 9.96367 3 10.2857V18.7857C3 19.1078 3.12793 19.4166 3.35566 19.6443C3.58338 19.8721 3.89224 20 4.21429 20H18.7857C19.1078 20 19.4166 19.8721 19.6443 19.6443C19.8721 19.4166 20 19.1078 20 18.7857V10.2857C20 9.96367 19.8721 9.65481 19.6443 9.42708C19.4166 9.19936 19.1078 9.07143 18.7857 9.07143H4.21429ZM14.2686 13.7221C14.358 13.6388 14.4298 13.5382 14.4796 13.4265C14.5294 13.3148 14.5561 13.1942 14.5583 13.0719C14.5604 12.9496 14.538 12.8282 14.4921 12.7148C14.4463 12.6014 14.3782 12.4984 14.2917 12.4119C14.2052 12.3254 14.1022 12.2572 13.9888 12.2114C13.8754 12.1656 13.7539 12.1431 13.6317 12.1453C13.5094 12.1474 13.3888 12.1742 13.2771 12.224C13.1653 12.2738 13.0648 12.3455 12.9814 12.435L10.5893 14.8271L10.0186 14.2564C9.9352 14.167 9.83465 14.0952 9.72294 14.0454C9.61123 13.9956 9.49063 13.9689 9.36835 13.9667C9.24607 13.9646 9.1246 13.987 9.0112 14.0329C8.8978 14.0787 8.79479 14.1468 8.70831 14.2333C8.62183 14.3198 8.55366 14.4228 8.50785 14.5362C8.46205 14.6496 8.43955 14.7711 8.44171 14.8933C8.44387 15.0156 8.47063 15.1362 8.52041 15.2479C8.57018 15.3597 8.64195 15.4602 8.73143 15.5436L9.94571 16.7579C10.1165 16.9284 10.3479 17.0242 10.5893 17.0242C10.8306 17.0242 11.0621 16.9284 11.2329 16.7579L14.2686 13.7221Z" fill="#75797C"/>
</svg>
